<?xml version="1.0" encoding="UTF-8"?>
<!DOCTYPE svg PUBLIC "-//W3C//DTD SVG 1.1//EN" "http://www.w3.org/Graphics/SVG/1.1/DTD/svg11.dtd">
<svg xmlns="http://www.w3.org/2000/svg" version="1.1" width="64px" height="64px" style="shape-rendering:geometricPrecision; text-rendering:geometricPrecision; image-rendering:optimizeQuality; fill-rule:evenodd; clip-rule:evenodd" xmlns:xlink="http://www.w3.org/1999/xlink">
<g><path style="opacity:1" fill="#1b9848" d="M 39.5,4.5 C 39.0618,4.43456 38.7284,4.60123 38.5,5C 39.3081,5.30762 39.9747,5.80762 40.5,6.5C 39.0986,7.52066 37.7653,8.52066 36.5,9.5C 34.5336,10.4412 32.5336,11.4412 30.5,12.5C 29.5713,11.3112 29.238,9.97782 29.5,8.5C 29.5,6.83333 29.5,5.16667 29.5,3.5C 29.281,2.32496 29.6143,1.32496 30.5,0.5C 33.2853,2.56831 36.2853,3.90164 39.5,4.5 Z"/></g>
<g><path style="opacity:1" fill="#175f2d" d="M 29.5,3.5 C 29.5,5.16667 29.5,6.83333 29.5,8.5C 19.3667,10.6327 12.7,16.6327 9.5,26.5C 8.33324,24.9586 6.99991,23.6252 5.5,22.5C 9.3811,10.9512 17.3811,4.61784 29.5,3.5 Z"/></g>
<g><path style="opacity:1" fill="#18612f" d="M 39.5,4.5 C 51.1511,8.78246 57.8177,17.1158 59.5,29.5C 56.8333,29.5 54.1667,29.5 51.5,29.5C 50.9326,28.5798 51.5992,28.2465 53.5,28.5C 51.7152,18.7142 46.0486,12.3809 36.5,9.5C 37.7653,8.52066 39.0986,7.52066 40.5,6.5C 39.9747,5.80762 39.3081,5.30762 38.5,5C 38.7284,4.60123 39.0618,4.43456 39.5,4.5 Z"/></g>
<g><path style="opacity:1" fill="#2175c7" d="M 24.5,23.5 C 22.09,24.0629 19.7567,24.5629 17.5,25C 20.0045,19.1436 24.3378,16.8103 30.5,18C 28.2368,19.617 26.2368,21.4503 24.5,23.5 Z"/></g>
<g><path style="opacity:1" fill="#1a75c7" d="M 38.5,23.5 C 36.7444,21.0552 34.411,19.2218 31.5,18C 35.1751,17.0865 38.5084,17.7532 41.5,20C 42.8869,22.2934 44.0536,24.4601 45,26.5C 43.1295,24.7811 40.9628,23.7811 38.5,23.5 Z"/></g>
<g><path style="opacity:1" fill="#f6ba32" d="M 5.5,22.5 C 6.99991,23.6252 8.33324,24.9586 9.5,26.5C 9.67258,29.1795 10.6726,31.5128 12.5,33.5C 11.675,34.3857 10.675,34.719 9.5,34.5C 7.83333,34.5 6.16667,34.5 4.5,34.5C 3.16667,34.5 1.83333,34.5 0.5,34.5C 2.21246,30.4222 3.87913,26.4222 5.5,22.5 Z"/></g>
<g><path style="opacity:1" fill="#1d72c6" d="M 24.5,23.5 C 29.1667,23.5 33.8333,23.5 38.5,23.5C 41.0836,30.254 38.7503,33.254 31.5,32.5C 29.2412,32.4677 27.0745,32.1344 25,31.5C 24.5026,28.854 24.3359,26.1873 24.5,23.5 Z"/></g>
<g><path style="opacity:1" fill="#169846" d="M 51.5,29.5 C 54.1667,29.5 56.8333,29.5 59.5,29.5C 60.791,29.2627 61.791,29.596 62.5,30.5C 60.633,34.112 58.9663,37.7787 57.5,41.5C 56.2632,40.0351 55.2632,38.3684 54.5,36.5C 53.2271,34.2872 52.2271,31.9538 51.5,29.5 Z"/></g>
<g><path style="opacity:1" fill="#ea9f24" d="M 4.5,34.5 C 6.16667,34.5 7.83333,34.5 9.5,34.5C 11.2615,43.9218 16.5948,50.2552 25.5,53.5C 24.9423,54.7899 23.9423,55.6232 22.5,56C 24.7472,57.2775 26.7472,58.7775 28.5,60.5C 14.5843,57.2524 6.58432,48.5857 4.5,34.5 Z"/></g>
<g><path style="opacity:1" fill="#116ec4" d="M 22.5,33.5 C 25.1873,33.3359 27.854,33.5026 30.5,34C 26.618,38.1827 22.4514,42.016 18,45.5C 17.3333,44.5 17.3333,43.5 18,42.5C 20.0406,39.7522 21.5406,36.7522 22.5,33.5 Z"/></g>
<g><path style="opacity:1" fill="#1970c5" d="M 33.5,34.5 C 35.9664,33.3659 38.633,33.1993 41.5,34C 43,36.8333 44.5,39.6667 46,42.5C 46.7494,43.635 46.5827,44.635 45.5,45.5C 41.4799,41.8114 37.4799,38.1447 33.5,34.5 Z"/></g>
<g><path style="opacity:1" fill="#ea9e22" d="M 54.5,36.5 C 55.2632,38.3684 56.2632,40.0351 57.5,41.5C 54.0991,52.2285 46.7658,58.2285 35.5,59.5C 34.5489,58.0813 34.2155,56.4147 34.5,54.5C 44.656,52.3426 51.3227,46.3426 54.5,36.5 Z"/></g>
<g><path style="opacity:1" fill="#fcbc34" d="M 34.5,54.5 C 34.2155,56.4147 34.5489,58.0813 35.5,59.5C 35.0919,60.6431 34.4252,61.6431 33.5,62.5C 31.9246,61.5435 30.258,60.8769 28.5,60.5C 26.7472,58.7775 24.7472,57.2775 22.5,56C 23.9423,55.6232 24.9423,54.7899 25.5,53.5C 28.4234,52.705 31.0901,51.3716 33.5,49.5C 34.4519,51.0453 34.7852,52.712 34.5,54.5 Z"/></g>
</svg>
